<svg xmlns="http://www.w3.org/2000/svg" viewBox="0 0 412.46 507.54"><defs><style>.cls-1{fill:#fefefe;}</style></defs><g id="Capa_2" data-name="Capa 2"><g id="Capa_1-2" data-name="Capa 1"><path class="cls-1" d="M0,275.12C.32,242.78,6.22,211.71,23.75,184,49,144.19,85,122.86,132.88,124.05c15.88.4,30.46,6.66,45,12.49,4.32,1.73,8.7,3.34,13,5.13,13.19,5.51,26.12,4.75,39.3-.53,15.59-6.24,31.06-13,47.65-16.3,41.37-8.26,90.83,5.22,119.6,44,2.53,3.41,1.67,4.69-1.37,6.82-26.35,18.46-43.69,43-49.33,75a110.51,110.51,0,0,0,59.71,118.08c7.12,3.56,7,3.52,4.37,11-13.44,38.07-34.47,71.57-61.4,101.41-12,13.29-26.31,23.06-44.73,25.06-14.9,1.62-28.74-2.52-42-8.71-17.23-8.05-35.08-12.29-54.2-10.86-13.68,1-26.35,5.38-38.74,10.8-10.1,4.42-20.39,8.46-31.35,9.69-16.54,1.87-30.64-4.45-43.15-14.76-13.61-11.23-23.94-25.34-34.5-39.29-28.05-37-45.36-78.82-54.84-124C2.18,311.41-.3,293.4,0,275.12Z"/><path class="cls-1" d="M308.34,11.51c-1.51,46.28-32.49,87.85-75.28,101.94a71.78,71.78,0,0,1-21.63,3.32c-5.14.07-6.57-2.2-6.67-6.91C204.4,93.37,208.59,78,216,63.44c16-31.4,41.2-51.6,75-61.14A63,63,0,0,1,298.82.67c9.28-1.41,9.29-1.37,9.52,8C308.37,10,308.34,11.28,308.34,11.51Z"/></g></g></svg>