<svg xmlns="http://www.w3.org/2000/svg" viewBox="0 0 172.2 299.82"><defs><style>.cls-1{fill:#fefefe;}</style></defs><g id="Capa_2" data-name="Capa 2"><g id="Capa_1-2" data-name="Capa 1"><path class="cls-1" d="M107.55,238.64c0,19.27,0,38.54,0,57.82,0,2.47-.38,3.38-3.19,3.36q-31.26-.21-62.52,0c-2.57,0-3.16-.71-3.16-3.19q.1-57.81.05-115.63c0-3.93,0-3.92-4-3.92-10.55,0-21.1-.1-31.65,0C.82,177.08,0,176.52,0,174q.17-25.89,0-51.8c0-2.26.58-3,2.92-3,10.55.12,21.1.05,31.65.05,4.2,0,4.22,0,4.2-4.08-.05-11-.11-22,.52-33,.79-13.9,3.27-27.47,9.16-40.22C57.42,22.62,72.7,10.7,93,5A138.09,138.09,0,0,1,144.78.78a239.89,239.89,0,0,1,24.6,3.35c2.12.43,2.83,1.25,2.82,3.44q-.13,23.55,0,47.09c0,2.22-.62,2.82-2.82,2.66a162.17,162.17,0,0,0-30.29.07c-9.34,1-17.91,3.85-24,11.63-4.28,5.45-6,11.86-6.87,18.58-1.23,9.55-.37,19.16-.69,28.73-.08,2.3.61,3,2.92,3,18.31-.09,36.62,0,54.93,0,3.83,0,3.87,0,3.18,3.77-3.06,16.89-6.21,33.76-9.18,50.66-.48,2.72-1.56,3.43-4.26,3.4-14.74-.15-29.47,0-44.21-.13-2.59,0-3.42.62-3.4,3.34C107.61,199.74,107.55,219.19,107.55,238.64Z"/></g></g></svg>