<svg xmlns="http://www.w3.org/2000/svg" viewBox="0 0 259.17 264.68"><defs><style>.cls-1{fill:#fefefe;}</style></defs><g id="Capa_2" data-name="Capa 2"><g id="Capa_1-2" data-name="Capa 1"><path class="cls-1" d="M194.82,108.32c19.69,0,39.39,0,59.08,0,2.21,0,3.21.55,3.55,2.87.62,4.24,1.15,8.49,1.39,12.76,1.61,28.38-2.45,55.62-16.78,80.68a113.92,113.92,0,0,1-51.22,47.51c-22.89,10.83-47.18,14.48-72.07,11.69-42.78-4.79-76-25.73-99-62.22A126,126,0,0,1,.38,142.65a129.86,129.86,0,0,1,13.77-69.4A136,136,0,0,1,52.63,26.78C67.84,15,85.09,7.53,103.83,3.34a128.59,128.59,0,0,1,45.46-2.26c24.85,3.37,47.09,12.9,66.33,29.15,1.2,1,2.43,2,3.66,3s1.31,1.82.16,3q-17.5,17.42-34.94,34.9c-1.46,1.47-2.43.78-3.6-.26a68.92,68.92,0,0,0-32.67-16.33A77.73,77.73,0,0,0,64.63,93c-8.63,15.35-12.14,31.76-9.95,49.26,4.23,33.76,30.38,62.28,62.69,68.26,18.31,3.4,35.93,1.5,52.58-7.15,16.88-8.78,28.13-22.18,32.84-40.8.74-2.9.59-3.11-2.39-3.11l-64.72,0c-3.42,0-3.42,0-3.42-3.5l0-44.65c0-2.94.07-3,3.05-3h59.54Z"/></g></g></svg>