<svg xmlns="http://www.w3.org/2000/svg" viewBox="0 0 807.33 898.11"><defs><style>.cls-1,.cls-7{fill:#f2f2f2;}.cls-2{fill:#c9c9c9;}.cls-3{fill:#dedede;}.cls-4{fill:#323131;opacity:0.12;}.cls-5{fill:#272626;}.cls-6{fill:#fff;}.cls-7{font-size:189px;font-family:Inter-Bold, Inter;font-weight:700;}</style></defs><g id="Capa_2" data-name="Capa 2"><g id="Capa_2-2" data-name="Capa 2"><path class="cls-1" d="M698,0H109.34A109.34,109.34,0,0,0,0,109.34v770a18.74,18.74,0,0,0,18.73,18.73H30.8V111.49a82,82,0,0,1,82-82h80.42a7.2,7.2,0,0,1,7.2,7.2V52.81A37.69,37.69,0,0,0,238.15,90.5h331a37.69,37.69,0,0,0,37.7-37.69V36.64a7.2,7.2,0,0,1,7.2-7.2h80.41a82,82,0,0,1,82,82.05V898.11h12.07a18.74,18.74,0,0,0,18.74-18.73v-770A109.34,109.34,0,0,0,698,0Z"/><rect class="cls-2" x="83.44" y="673.51" width="633.79" height="155.66" rx="15.29"/><rect class="cls-3" x="62.5" y="651.42" width="675.67" height="155.66" rx="15.29"/><rect class="cls-1" x="52.15" y="624.56" width="696.36" height="155.66" rx="15.29"/><rect class="cls-4" x="206.2" y="713.04" width="324.23" height="13.23" rx="2.88"/><rect class="cls-4" x="206.2" y="682.5" width="132.39" height="13.23" rx="2.88"/><rect class="cls-5" x="85.44" y="655.78" width="94.56" height="94.56" rx="21.96"/><path class="cls-6" d="M168.13,685H146a1,1,0,0,0-.89.51l-12.36,20.9-12.36-20.9a1,1,0,0,0-.89-.51H97.31a1,1,0,0,0-.9,1.55l22.77,39.76a1,1,0,0,0,1.78,0l11.76-19.88,11.76,19.88a1,1,0,0,0,1.78,0L169,686.5A1,1,0,0,0,168.13,685Z"/><text class="cls-7" transform="translate(200.19 392.11)">11:11</text></g></g></svg>