<svg id="Capa_2" data-name="Capa 2" xmlns="http://www.w3.org/2000/svg" viewBox="0 0 36 36"><defs><style>.cls-1{fill:none;}.cls-1,.cls-2{stroke:#444343;stroke-miterlimit:10;stroke-width:2.37px;}.cls-2{fill:#444343;}</style></defs><path class="cls-1" d="M14.58,3.14h6.84a2.77,2.77,0,0,1,2.77,2.77v3.5a0,0,0,0,1,0,0H11.81a0,0,0,0,1,0,0V5.91A2.77,2.77,0,0,1,14.58,3.14Z"/><path class="cls-2" d="M30.72,9.41H5.28a3,3,0,0,0-3,3V28.85a3,3,0,0,0,3,3H30.72a3,3,0,0,0,3-3V12.43A3,3,0,0,0,30.72,9.41ZM12.81,24.94a2.31,2.31,0,0,1-4.62,0V15.73a2.31,2.31,0,0,1,4.62,0Zm15.12,0a2.31,2.31,0,1,1-4.62,0V15.73a2.31,2.31,0,1,1,4.62,0Z"/></svg>